<svg width="960" height="960" viewBox="0 0 960 960" fill="none" xmlns="http://www.w3.org/2000/svg">
<g clip-path="url(#clip0_46_7755)">
<g clip-path="url(#clip1_46_7755)">
<path fill-rule="evenodd" clip-rule="evenodd" d="M568.594 546.6C564.154 546.405 559.702 546.3 555.262 546.3C523.349 546.294 491.631 551.273 461.255 561.058L459.545 560.332C458.022 561.199 456.429 562.031 454.789 562.792C444.738 567.49 434.018 569.798 423.1 570.981C435.178 615.969 415.614 667.669 376.755 693.369C337.837 719.096 282.519 716.812 245.862 687.969C245.136 687.397 244.405 686.813 243.667 686.223C236.288 680.324 228.3 673.938 219.152 675.269C218.879 675.305 218.61 675.351 218.352 675.41C212.764 676.488 208.078 680.366 204.013 684.419C194.84 693.556 187.164 704.545 183.664 717.01C181.112 725.813 181.039 735.149 183.453 743.99C184.498 747.686 186.069 751.213 188.116 754.463C194.278 764.142 204.353 770.571 214.44 776.042C254.54 797.809 300.456 809.5 346 806.9C391.544 804.3 436.53 787.009 470.398 756.418C504.266 725.827 526.291 681.818 527.919 636.218L528.786 635.574C577.166 699.936 625.553 764.299 673.948 828.662C683.167 840.928 693.102 853.756 707.359 859.438C714.15 862.075 721.459 863.109 728.716 862.46C743.442 861.359 758.378 854.657 771.511 847.195C783.249 840.506 794.789 833.02 803.657 822.828C805.905 820.249 807.938 817.491 809.737 814.581C815.103 805.923 818.277 795.954 817.551 785.867C816.051 765.277 799.463 749.439 783.987 735.767L571.874 548.287L571.921 546.729C570.808 546.694 569.694 546.647 568.594 546.6ZM595.677 577.001C594.949 576.359 593.839 576.43 593.197 577.158C592.556 577.886 592.626 578.996 593.354 579.638C650.756 630.195 705.844 683.093 758.619 738.333C759.289 739.034 760.402 739.06 761.103 738.389C761.805 737.719 761.83 736.607 761.16 735.905C708.315 680.593 653.154 627.625 595.677 577.001Z" fill="#171717"/>
<path fill-rule="evenodd" clip-rule="evenodd" d="M701.83 315.792C720.281 272.879 722.483 224.426 716.415 178.116C715.443 170.677 713.334 162.019 706.397 159.205C701.348 157.155 695.659 159.076 690.559 160.986C690.452 161.027 690.348 161.066 690.245 161.105C690.083 161.166 689.923 161.227 689.759 161.291C681.159 164.532 672.559 167.77 663.959 171.003C660.725 172.222 657.282 173.616 655.29 176.357C655.16 176.544 655.032 176.731 654.915 176.931C652.422 181.02 653.838 186.256 655.115 190.872C663.807 222.21 662.39 256.898 647.746 285.928C633.184 314.794 604.764 337.158 572.676 341.118C575.363 344.911 577.663 348.965 579.541 353.218C587.862 370.523 594.629 388.533 599.761 407.037L601.6 406.537C646.957 395.361 683.379 358.705 701.83 315.792ZM707.165 192.438C706.942 191.494 705.995 190.91 705.051 191.133C704.106 191.357 703.522 192.304 703.746 193.248C713.155 232.981 708.118 274.765 689.535 311.123C689.093 311.987 689.436 313.046 690.3 313.487C691.164 313.929 692.222 313.587 692.664 312.723C711.627 275.621 716.767 232.983 707.165 192.438Z" fill="url(#paint0_linear_46_7755)"/>
<path fill-rule="evenodd" clip-rule="evenodd" d="M579.536 353.219C577.658 348.966 575.359 344.912 572.671 341.119C571.325 339.307 569.777 337.655 568.056 336.195C564.512 333.15 560.027 331.42 555.356 331.295C553.09 331.27 550.852 331.805 548.842 332.853L547.167 332.818C547.047 335.551 546.757 338.274 546.3 340.972L545.656 341.872C545.058 341.86 544.475 341.848 543.875 341.825V342.059C565.005 371.493 577.299 406.344 579.316 442.521C581.333 478.698 572.989 514.699 555.262 546.3C559.702 546.3 564.154 546.4 568.594 546.6C569.695 546.647 570.808 546.694 571.921 546.729C576.196 546.834 580.521 546.612 584.221 544.585C589.071 541.937 591.883 536.735 594.144 531.698C606.715 503.57 609.96 471.811 606.41 441.211C605.038 429.671 602.814 418.249 599.756 407.038C594.625 388.534 587.859 370.524 579.536 353.219ZM570.966 348.973C570.418 348.172 569.325 347.967 568.524 348.515C567.723 349.062 567.518 350.156 568.065 350.957C587.684 379.653 597.836 413.768 597.099 448.522C597.078 449.492 597.848 450.295 598.818 450.316C599.789 450.336 600.592 449.566 600.612 448.596C601.364 413.109 590.998 378.275 570.966 348.973Z" fill="#171717"/>
<path fill-rule="evenodd" clip-rule="evenodd" d="M371.933 413.519C374.604 428.218 377.275 442.924 379.946 457.638L379.806 458.294C372.261 456.795 364.928 453.573 359.656 448.02C353.939 441.986 351.057 432.931 353.716 425.058C356.233 417.642 364.318 412.195 371.933 413.507V413.519ZM449.662 493.439C448.889 481.092 448.713 468.752 449.135 456.419C449.451 447.246 450.143 437.874 453.718 429.417C454.655 427.18 456.33 424.696 458.767 424.825C459.547 424.928 460.284 425.241 460.901 425.73C461.517 426.218 461.989 426.865 462.267 427.601C462.793 429.081 463.023 430.649 462.946 432.217C462.983 439.855 462.193 447.475 460.591 454.944L460.626 454.956C464.878 454.573 469.062 453.648 473.079 452.203L472.517 450.317C471.275 416.613 461.212 381.901 435.661 358.494C429.271 352.586 422.003 347.705 414.117 344.026L414.023 343.018C398.97 344.328 384.056 346.926 369.447 350.785C341.534 358.47 314.632 373.102 297.434 396.38C280.236 419.658 274.449 452.483 287.675 478.233C298.172 498.664 318.744 512.16 340.112 520.595C376.167 534.732 415.799 536.961 453.212 526.956L452.954 525.175C451.419 514.655 450.318 504.053 449.662 493.439ZM345.553 415.792C345.903 414.887 345.453 413.87 344.548 413.52C343.642 413.17 342.625 413.621 342.275 414.526C339.669 421.274 338.915 428.597 340.092 435.735C341.27 442.873 344.336 449.566 348.972 455.119C349.594 455.864 350.702 455.964 351.446 455.342C352.191 454.72 352.291 453.612 351.669 452.867C347.435 447.795 344.635 441.682 343.559 435.163C342.484 428.644 343.172 421.956 345.553 415.792Z" fill="url(#paint1_linear_46_7755)"/>
<path fill-rule="evenodd" clip-rule="evenodd" d="M394.415 207.84C374.919 210.267 355.423 212.694 335.123 215.124L335.194 215.749C341.742 215.022 348.608 217.775 353.481 222.356C359.233 227.757 362.537 235.313 364.388 242.975C367.469 255.716 366.675 270.021 359.175 280.775C356.806 284.113 353.801 286.951 350.333 289.126C346.866 291.302 343.003 292.771 338.966 293.451L338.978 293.51L467.012 278.288L469.121 278.112C468.524 270.907 468.078 263.691 467.785 256.463L467.598 256.475C462.772 255.538 458.191 258.631 454.29 261.606C450.389 264.581 445.937 267.779 441.075 267.1C444.488 258.364 448.899 250.051 454.219 242.327C447.937 247.634 440.632 251.593 432.757 253.96C438.38 241.128 444.004 228.304 449.627 215.488C451.591 210.704 453.95 206.092 456.679 201.699L455.507 200.34C434.559 202.842 414.487 205.341 394.415 207.84ZM433.182 216.437C434.14 216.286 434.794 215.385 434.642 214.427C434.49 213.469 433.59 212.815 432.632 212.967C412.277 216.193 391.734 218.087 371.133 218.638C370.163 218.664 369.397 219.471 369.423 220.441C369.449 221.411 370.257 222.176 371.227 222.15C391.981 221.596 412.676 219.687 433.182 216.437Z" fill="url(#paint2_linear_46_7755)"/>
<path d="M558.499 266.588C558.523 267.139 558.546 267.689 558.569 268.24L557.245 268.299C553.133 266.846 549.021 265.398 544.909 263.953H544.897C545.131 259.068 545.291 254.179 545.377 249.286L546.654 249.309C550.567 248.709 554.374 251.509 556.202 255.026C558.03 258.543 558.307 262.628 558.499 266.588Z" fill="#171717"/>
<path d="M546.899 328.362C547.124 329.835 547.214 331.325 547.168 332.814C547.048 335.547 546.758 338.27 546.301 340.968L545.657 341.868C545.057 341.856 544.474 341.845 543.876 341.821C514.401 341.13 484.934 340.447 455.476 339.771C455.113 339.771 454.761 339.759 454.398 339.748L454.41 339.104C452.336 332.304 450.767 323.652 456.296 319.188C459.447 316.646 463.829 316.517 467.882 316.505C469.815 316.505 471.736 316.493 473.669 316.493C487.528 316.446 501.391 316.407 515.258 316.376C520.238 316.353 525.217 316.338 530.195 316.329C533.674 316.317 537.33 316.352 540.387 318.016C544.085 320.044 546.241 324.2 546.899 328.362Z" fill="url(#paint3_linear_46_7755)"/>
<path d="M548.842 332.849L547.167 332.814C547.212 331.325 547.122 329.835 546.898 328.362C546.242 324.203 544.086 320.044 540.384 318.018C537.327 316.354 533.671 316.318 530.192 316.331C525.213 316.343 520.233 316.359 515.255 316.378V315.616C514.083 307.064 513.568 296.766 520.433 291.516C525.306 287.791 532.371 288.107 537.361 284.534C543.453 280.164 544.519 271.671 544.882 264.185C544.882 264.103 544.894 264.033 544.894 263.951H544.906C549.018 265.404 553.13 266.853 557.242 268.297L558.566 268.238C559.464 288.659 558.979 309.118 557.113 329.473L555.356 331.289C553.089 331.264 550.851 331.8 548.842 332.849V332.849Z" fill="#171717"/>
<path d="M546.675 182.017L547.261 182.474L568.606 162.886C571.5 160.238 575.366 157.392 578.974 158.926C583.109 160.672 583.156 166.564 581.75 170.826C577.79 182.857 567.797 192.288 556.281 197.572C552.295 199.385 548.14 200.798 543.875 201.789C535.771 203.591 527.473 204.374 519.175 204.12C511.326 203.979 503.442 203.195 495.651 204.12C487.86 205.045 479.941 207.92 474.775 213.832C467.793 221.845 467.266 233.478 467.43 244.116C467.5 248.228 467.606 252.352 467.781 256.464L467.594 256.476C462.767 255.539 458.187 258.62 454.286 261.607C450.385 264.594 445.933 267.781 441.071 267.101C444.484 258.364 448.895 250.05 454.215 242.324C447.933 247.631 440.628 251.59 432.753 253.957C438.376 241.129 444 228.305 449.623 215.485C451.589 210.702 453.95 206.091 456.68 201.7C459.33 197.395 463.021 193.826 467.411 191.32C474.171 187.712 482.699 187.477 488.428 182.393C495.211 176.348 495.457 166.004 499.112 157.674C500.717 154.019 504.044 150.235 507.957 151.02C511.12 151.664 512.994 155.202 512.889 158.42C512.698 160.835 511.978 163.179 510.78 165.285L511.647 165.695C514.311 159.96 517.779 154.635 521.947 149.88C523.236 148.416 524.899 146.88 526.847 147.127C527.601 147.276 528.299 147.63 528.864 148.151C529.428 148.672 529.838 149.34 530.047 150.079C530.455 151.563 530.531 153.119 530.27 154.636C529.477 161.581 527.234 168.283 523.686 174.306L524.166 174.587C529.632 167.049 535.897 160.124 542.852 153.933C544.657 152.132 546.809 150.717 549.178 149.774C551.591 148.974 554.508 149.235 556.301 151.028C558.691 153.418 558.257 157.366 557.367 160.623C555.261 168.394 551.626 175.668 546.675 182.017V182.017Z" fill="#171717"/>
<path d="M510.44 468.322C512.115 467.104 513.31 464.96 512.795 462.945C512.476 462.02 511.912 461.199 511.163 460.57C510.414 459.94 509.508 459.526 508.542 459.372C506.61 459.095 504.642 459.183 502.742 459.63C501.805 459.782 500.879 459.946 499.942 460.099C502.39 459.399 505.202 457.299 507.147 455.659C509.092 454.019 510.334 451.231 509.396 448.859C508.307 446.153 505.003 445.134 502.086 444.923C500.119 444.79 498.143 444.845 496.186 445.087L496.057 444.187C494.768 412.849 491.687 377.411 468.433 353.852C462.974 348.227 456.452 343.743 449.244 340.661C451.318 340.567 453.391 340.461 455.465 340.368L455.477 339.768C484.94 340.447 514.407 341.13 543.877 341.818V342.052C565.008 371.487 577.303 406.339 579.32 442.518C581.337 478.696 572.991 514.699 555.263 546.3C523.348 546.294 491.627 551.274 461.249 561.061L459.539 560.335C474.339 551.865 483.883 538.369 488.897 521.781C492.224 510.792 493.911 499.288 495.036 487.889L494.884 487.081C498.715 486.355 502.651 485.57 506.775 484.738C509.548 484.343 512.18 483.269 514.437 481.61C516.557 479.818 517.776 476.619 516.464 474.159C514.777 471.043 510.407 470.902 506.881 471.242C506.026 471.324 505.181 471.406 504.327 471.5V471.488C506.538 470.808 508.609 469.735 510.44 468.322Z" fill="url(#paint4_linear_46_7755)"/>
<path d="M496.053 444.189L496.182 445.089C488.333 446.038 480.8 449.611 473.082 452.2L472.52 450.314C471.278 416.614 461.215 381.898 435.664 358.491C429.274 352.583 422.007 347.702 414.12 344.023L414.026 343.015C425.718 341.867 437.491 341.223 449.242 340.66C456.45 343.742 462.972 348.226 468.431 353.851C491.683 377.413 494.764 412.851 496.053 444.189Z" fill="#171717"/>
<path d="M423.092 570.981C413.263 572.035 403.292 572.188 393.5 572.305C393.5 572.176 393.512 572.036 393.512 571.905C393.641 567.383 393.746 563.025 393.863 558.714C422.163 555.867 451.478 546.179 463.744 518.114C467.125 509.991 469.387 501.446 470.468 492.714L470.268 491.238C478.268 490.138 486.268 488.738 494.881 487.079L495.033 487.887C493.908 499.287 492.221 510.787 488.894 521.779C483.88 538.368 474.332 551.863 459.536 560.333C458.013 561.2 456.42 562.033 454.78 562.793C444.73 567.49 434.011 569.8 423.092 570.981Z" fill="#171717"/>
<path d="M470.269 491.237L470.469 492.713C469.388 501.445 467.126 509.99 463.745 518.113C451.479 546.182 422.168 555.871 393.864 558.713C394.087 550.196 394.297 541.878 394.555 532.913L394.567 532.726C414.3 534.03 434.114 532.079 453.213 526.95L452.955 525.169C451.42 514.649 450.319 504.047 449.663 493.433L449.991 493.41C456.984 492.888 463.627 492.162 470.269 491.237Z" fill="url(#paint5_linear_46_7755)"/>
<path d="M467.012 278.291L469.121 278.115C470.164 290.648 471.679 303.125 473.666 315.545V316.494C471.733 316.494 469.812 316.506 467.879 316.506C463.826 316.518 459.444 316.647 456.293 319.189C450.763 323.652 452.333 332.31 454.407 339.105L454.396 339.749C454.759 339.761 455.11 339.772 455.474 339.772L455.462 340.372C453.388 340.466 451.315 340.572 449.241 340.665C437.491 341.227 425.717 341.872 414.025 343.02C398.971 344.33 384.058 346.928 369.449 350.787C341.532 358.472 314.622 373.093 297.436 396.387C280.25 419.681 274.451 452.487 287.677 478.24C298.177 498.671 318.745 512.167 340.114 520.602C357.524 527.453 375.895 531.547 394.566 532.739L394.554 532.926C394.296 541.888 394.085 550.206 393.863 558.726C393.746 563.037 393.64 567.395 393.512 571.917L392.294 571.882C357.875 576.882 321.558 575.713 289.928 561.655C268.841 552.283 253.61 534.71 247.754 512.455C241.981 488.405 238.908 463.786 238.593 439.055L240.421 439.032C258.743 427.083 267.26 405.457 272.391 385.084C278.12 362.298 280.404 337.907 292.81 317.394C299.581 306.183 309.317 297.232 320.446 290.438L321.454 289.538C322.484 290.278 323.574 290.932 324.711 291.494C329.142 293.619 334.126 294.307 338.967 293.462L338.979 293.521L467.012 278.291Z" fill="#171717"/>
<path d="M371.932 413.519C374.603 428.221 377.274 442.927 379.945 457.638L379.804 458.294C372.259 456.794 364.926 453.573 359.654 448.02C353.937 441.987 351.054 432.931 353.714 425.058C356.233 417.642 364.314 412.195 371.931 413.507V413.519H371.932Z" fill="#171717"/>
<path d="M321.451 289.526L320.443 290.426C309.314 297.226 299.579 306.171 292.808 317.382C280.402 337.895 278.117 362.282 272.389 385.072C267.258 405.445 258.741 427.072 240.419 439.02L238.591 439.043C238.076 411.278 240.491 383.537 244.238 355.456C246.581 344.912 251.477 327.199 255.952 319.139C268.152 297.185 286.352 280.526 309.666 271.119C311.646 278.4 315.499 285.274 321.451 289.526Z" fill="#171717"/>
<path d="M316.462 238.53C316.643 236.254 317.067 234.003 317.727 231.817C319.827 224.94 324.85 218.696 331.703 216.494C332.84 216.134 334.009 215.883 335.194 215.744C341.743 215.018 348.608 217.771 353.481 222.351C359.233 227.751 362.537 235.308 364.388 242.97C367.469 255.716 366.672 270.02 359.175 280.77C356.806 284.108 353.801 286.946 350.333 289.122C346.866 291.297 343.003 292.766 338.966 293.446C334.125 294.291 329.14 293.603 324.709 291.478C323.572 290.916 322.482 290.262 321.452 289.522C315.501 285.269 311.646 278.393 309.667 271.122C309.249 269.631 308.915 268.117 308.667 266.588C307.14 257.263 308.035 247.702 311.267 238.823L312.005 237.886C313.387 238.109 313.598 238.179 314.992 238.413L316.462 238.53Z" fill="url(#paint6_linear_46_7755)"/>
<path d="M515.255 315.616C514.083 307.064 513.568 296.766 520.433 291.516C525.306 287.791 532.371 288.107 537.361 284.534C543.453 280.164 544.519 271.671 544.882 264.185C544.882 264.103 544.894 264.033 544.894 263.951C545.128 259.066 545.288 254.177 545.374 249.284C545.674 233.75 545.257 218.192 544.097 202.693" stroke="#171717" stroke-width="3.514" stroke-linecap="round" stroke-linejoin="round"/>
<path d="M532.172 219.072C524.666 218.406 517.116 218.402 509.609 219.06C512.374 233.762 514.611 248.554 516.322 263.437C511.929 263.847 507.532 264.253 503.131 264.655C503.611 264.585 504.103 264.503 504.595 264.421" stroke="#171717" stroke-width="3.514" stroke-linecap="round" stroke-linejoin="round"/>
<path d="M530.824 232.579C530.221 231.438 529.297 230.5 528.166 229.879C527.035 229.259 525.747 228.984 524.461 229.089C523.175 229.194 521.948 229.673 520.932 230.469C519.916 231.264 519.156 232.34 518.746 233.563C518.992 233.2 519.238 232.825 519.472 232.45" stroke="#171717" stroke-width="3.514" stroke-linecap="round" stroke-linejoin="round"/>
<path d="M499.779 230.752C499.358 229.41 498.501 228.246 497.344 227.446C496.187 226.646 494.796 226.255 493.391 226.335C491.986 226.416 490.649 226.963 489.591 227.89C488.532 228.817 487.814 230.07 487.549 231.452C487.713 231.241 487.889 231.019 488.049 230.796" stroke="#171717" stroke-width="3.514" stroke-linecap="round" stroke-linejoin="round"/>
<path d="M499.04 279.205C497.41 279.84 495.646 280.053 493.911 279.823C492.177 279.594 490.528 278.931 489.119 277.894C487.71 276.857 486.585 275.482 485.849 273.894C485.114 272.307 484.791 270.559 484.911 268.814" stroke="#171717" stroke-width="3.514" stroke-linecap="round" stroke-linejoin="round"/>
<path d="M473.666 315.545C471.686 303.139 470.171 290.662 469.121 278.115C468.521 270.91 468.076 263.693 467.785 256.466C467.609 252.354 467.504 248.23 467.434 244.118C467.27 233.481 467.797 221.848 474.779 213.834C479.945 207.918 487.853 205.048 495.655 204.122C503.457 203.196 511.33 203.981 519.179 204.122C527.478 204.376 535.775 203.593 543.879 201.791C548.144 200.799 552.3 199.387 556.285 197.574C567.801 192.29 577.794 182.86 581.754 170.828C583.16 166.564 583.113 160.671 578.978 158.928C575.37 157.393 571.504 160.24 568.61 162.888L547.266 182.476" stroke="#171717" stroke-width="3.514" stroke-linecap="round" stroke-linejoin="round"/>
<path d="M546 182.872C546.234 182.591 546.457 182.298 546.68 182.017C551.629 175.668 555.261 168.395 557.364 160.625C558.254 157.368 558.688 153.42 556.298 151.03C554.506 149.238 551.589 148.98 549.175 149.776C546.806 150.719 544.654 152.134 542.849 153.935C535.895 160.126 529.63 167.051 524.164 174.589C524.62 174.214 525.088 173.839 525.546 173.464" stroke="#171717" stroke-width="3.514" stroke-linecap="round" stroke-linejoin="round"/>
<path d="M523.479 174.648C523.549 174.531 523.62 174.425 523.679 174.308C527.227 168.285 529.47 161.583 530.263 154.638C530.525 153.121 530.448 151.565 530.04 150.081C529.831 149.341 529.422 148.674 528.857 148.153C528.292 147.632 527.594 147.278 526.84 147.129C524.895 146.883 523.232 148.418 521.94 149.882C517.773 154.638 514.305 159.963 511.64 165.697C511.253 166.529 510.89 167.372 510.54 168.216" stroke="#171717" stroke-width="3.514" stroke-linecap="round" stroke-linejoin="round"/>
<path d="M509.632 167.443C510.019 166.743 510.405 166.014 510.78 165.287C511.978 163.181 512.698 160.837 512.889 158.422C512.994 155.2 511.12 151.662 507.957 151.022C504.044 150.237 500.717 154.022 499.112 157.676C495.457 166.005 495.212 176.35 488.428 182.395C482.699 187.479 474.171 187.714 467.411 191.322C463.02 193.827 459.33 197.396 456.68 201.7C453.95 206.093 451.592 210.705 449.628 215.489C444.004 228.305 438.381 241.129 432.758 253.961C440.633 251.594 447.938 247.635 454.22 242.328C454.56 242.047 454.888 241.766 455.22 241.473" stroke="#171717" stroke-width="3.514" stroke-linecap="round" stroke-linejoin="round"/>
<path d="M455.66 240.264C455.168 240.943 454.688 241.635 454.219 242.326C448.899 250.051 444.488 258.364 441.075 267.1C445.937 267.779 450.389 264.581 454.29 261.606C458.191 258.631 462.772 255.538 467.598 256.475" stroke="#171717" stroke-width="3.514" stroke-linecap="round" stroke-linejoin="round"/>
<path d="M454.406 339.1C452.332 332.305 450.763 323.648 456.292 319.184C459.443 316.642 463.825 316.513 467.878 316.501C469.811 316.501 471.732 316.489 473.665 316.489C487.524 316.442 501.387 316.403 515.254 316.372C520.234 316.349 525.213 316.334 530.191 316.325C533.67 316.313 537.326 316.348 540.383 318.012C544.083 320.039 546.241 324.198 546.897 328.356C547.122 329.829 547.212 331.319 547.166 332.808C547.046 335.541 546.756 338.264 546.299 340.962" stroke="#171717" stroke-width="3.514" stroke-linecap="round" stroke-linejoin="round"/>
<path d="M449.99 493.416C456.984 492.889 463.626 492.162 470.269 491.237C478.269 490.137 486.269 488.737 494.882 487.078C498.713 486.352 502.649 485.567 506.773 484.735C509.546 484.34 512.178 483.266 514.435 481.607C516.555 479.815 517.774 476.616 516.462 474.156C514.775 471.04 510.405 470.899 506.879 471.239C506.024 471.321 505.179 471.403 504.325 471.497C492.825 472.657 481.363 474.379 470.025 476.64" stroke="#171717" stroke-width="3.514" stroke-linecap="round" stroke-linejoin="round"/>
<path d="M499.92 460.11C490.138 461.75 480.356 463.402 470.574 465.065" stroke="#171717" stroke-width="3.514" stroke-linecap="round" stroke-linejoin="round"/>
<path d="M504.324 471.485C506.536 470.807 508.608 469.735 510.439 468.322C512.114 467.104 513.309 464.96 512.794 462.945C512.476 462.02 511.912 461.199 511.163 460.57C510.413 459.94 509.507 459.526 508.541 459.372C506.609 459.095 504.642 459.183 502.741 459.63C501.804 459.782 500.878 459.946 499.941 460.099" stroke="#171717" stroke-width="3.514" stroke-linecap="round" stroke-linejoin="round"/>
<path d="M499.92 460.11C499.932 460.11 499.932 460.11 499.943 460.098C502.391 459.398 505.203 457.298 507.148 455.658C509.093 454.018 510.335 451.23 509.397 448.858C508.308 446.152 505.004 445.133 502.087 444.922C500.119 444.789 498.144 444.844 496.187 445.086C488.338 446.035 480.805 449.608 473.087 452.197C469.07 453.642 464.885 454.567 460.634 454.95C461.134 455.02 461.642 455.102 462.145 455.173" stroke="#171717" stroke-width="3.514" stroke-linecap="round" stroke-linejoin="round"/>
<path d="M460.487 455.447C460.522 455.283 460.557 455.107 460.587 454.947C462.189 447.478 462.979 439.858 462.942 432.22C463.019 430.652 462.788 429.084 462.263 427.604C461.985 426.868 461.512 426.221 460.896 425.733C460.28 425.244 459.543 424.931 458.763 424.828C456.326 424.699 454.651 427.183 453.714 429.42C450.141 437.878 449.45 447.25 449.133 456.42C448.711 468.753 448.886 481.093 449.66 493.44C450.316 504.054 451.417 514.656 452.952 525.176" stroke="#171717" stroke-width="3.514" stroke-linecap="round" stroke-linejoin="round"/>
<path d="M371.933 413.519C372.396 413.583 372.854 413.681 373.304 413.812" stroke="#171717" stroke-width="3.514" stroke-linecap="round" stroke-linejoin="round"/>
<path d="M448.947 456.572C434.819 457.38 420.695 458.192 406.574 459.009C398.28 459.489 389.915 459.958 381.715 458.646C381.082 458.541 380.438 458.423 379.805 458.295C372.26 456.795 364.927 453.574 359.655 448.021C353.938 441.988 351.055 432.932 353.715 425.059C356.234 417.643 364.315 412.196 371.932 413.508" stroke="#171717" stroke-width="3.514" stroke-linecap="round" stroke-linejoin="round"/>
<path d="M371.933 413.507V413.519C374.603 428.221 377.274 442.927 379.946 457.638C380.098 457.251 380.262 456.865 380.426 456.478" stroke="#171717" stroke-width="3.514" stroke-linecap="round" stroke-linejoin="round"/>
<path d="M453.212 526.956C415.799 536.961 376.167 534.732 340.112 520.595C318.744 512.16 298.172 498.664 287.675 478.233C274.449 452.483 280.236 419.658 297.434 396.38C314.632 373.102 341.534 358.47 369.447 350.785C384.056 346.926 398.97 344.328 414.023 343.018C425.715 341.87 437.488 341.226 449.239 340.663C451.313 340.569 453.386 340.463 455.46 340.37" stroke="#171717" stroke-width="3.514" stroke-linecap="round" stroke-linejoin="round"/>
<path d="M454.3 339.749H454.394C454.757 339.761 455.109 339.772 455.472 339.772C484.935 340.451 514.402 341.135 543.872 341.822C544.472 341.845 545.055 341.857 545.653 341.869" stroke="#171717" stroke-width="3.514" stroke-linecap="round" stroke-linejoin="round"/>
<path d="M394.555 532.919C394.297 541.881 394.086 550.199 393.864 558.719C393.747 563.03 393.641 567.388 393.513 571.91C393.513 572.039 393.501 572.179 393.501 572.31" stroke="#171717" stroke-width="3.514" stroke-linecap="round" stroke-linejoin="round"/>
<path d="M496.053 444.189C494.764 412.851 491.683 377.413 468.429 353.854C462.971 348.229 456.448 343.745 449.24 340.663C449.14 340.616 449.017 340.569 448.9 340.522" stroke="#171717" stroke-width="3.514" stroke-linecap="round" stroke-linejoin="round"/>
<path d="M393.5 572.3C403.294 572.183 413.263 572.031 423.092 570.976C434.01 569.793 444.73 567.485 454.781 562.787C456.421 562.026 458.014 561.194 459.537 560.327C474.337 551.857 483.881 538.361 488.895 521.773C492.222 510.784 493.909 499.28 495.034 487.881" stroke="#171717" stroke-width="3.514" stroke-linecap="round" stroke-linejoin="round"/>
<path d="M472.518 450.316C471.276 416.616 461.213 381.9 435.662 358.493C429.272 352.585 422.005 347.704 414.118 344.025" stroke="#171717" stroke-width="3.514" stroke-linecap="round" stroke-linejoin="round"/>
<path d="M393.828 558.716H393.863C422.163 555.869 451.478 546.181 463.744 518.116C467.125 509.993 469.387 501.448 470.468 492.716" stroke="#171717" stroke-width="3.514" stroke-linecap="round" stroke-linejoin="round"/>
<path d="M461.249 561.059C491.627 551.273 523.348 546.293 555.263 546.3C559.703 546.3 564.155 546.405 568.595 546.6C569.695 546.647 570.809 546.694 571.922 546.729C576.198 546.834 580.522 546.612 584.222 544.585C589.072 541.937 591.884 536.736 594.145 531.698C606.715 503.57 609.96 471.81 606.411 441.211C605.04 429.671 602.815 418.249 599.757 407.038C594.625 388.535 587.859 370.524 579.537 353.219C577.66 348.966 575.36 344.912 572.672 341.119C571.326 339.304 569.778 337.65 568.056 336.187C564.512 333.143 560.027 331.412 555.356 331.287C553.09 331.262 550.853 331.797 548.843 332.845" stroke="#171717" stroke-width="3.514" stroke-linecap="round" stroke-linejoin="round"/>
<path d="M555.11 546.579C555.157 546.485 555.215 546.392 555.262 546.298C572.989 514.697 581.333 478.696 579.316 442.519C577.299 406.342 565.005 371.491 543.875 342.057" stroke="#171717" stroke-width="3.514" stroke-linecap="round" stroke-linejoin="round"/>
<path d="M572.144 341.19L572.671 341.12C604.759 337.16 633.179 314.796 647.741 285.93C662.385 256.9 663.802 222.212 655.11 190.874C653.833 186.258 652.416 181.022 654.91 176.933C655.027 176.733 655.156 176.546 655.285 176.359C657.277 173.618 660.721 172.224 663.954 171.005C672.554 167.772 681.154 164.534 689.754 161.293C690.023 161.188 690.281 161.093 690.554 160.988C695.654 159.078 701.344 157.157 706.393 159.207C713.34 162.019 715.449 170.676 716.421 178.115C722.489 224.425 720.287 272.878 701.836 315.791C683.385 358.704 646.958 395.36 601.6 406.536" stroke="#171717" stroke-width="3.514" stroke-linecap="round" stroke-linejoin="round"/>
<path d="M654.653 175.9C647.912 174.063 641.426 171.39 635.347 167.945C632.347 166.245 629.103 163.692 629.337 160.26C629.665 155.738 635.792 154.086 640.103 155.48C644.414 156.874 648.103 160.049 652.591 160.728C645.838 150.157 641.084 138.434 638.568 126.145C638.205 124.411 637.935 122.466 638.896 120.979C640.138 119.034 643.043 118.788 645.105 119.843C647.167 120.898 648.538 122.889 649.779 124.834C656.088 134.71 661.004 145.409 664.388 156.629C661.178 144.617 658.964 132.36 657.769 119.984C657.441 116.598 658.003 112.053 661.369 111.455C664.778 110.855 666.84 115.063 667.707 118.425C670.402 128.98 673.097 139.539 675.79 150.103C673.701 137.439 673.076 124.577 673.927 111.771C674.138 108.671 674.993 104.859 678.016 104.071C681.952 103.064 684.483 108.124 685.268 112.108C688.361 127.764 689.662 143.721 689.146 159.671" stroke="#171717" stroke-width="3.514" stroke-linecap="round" stroke-linejoin="round"/>
<path d="M557.112 329.475C558.979 309.12 559.464 288.661 558.565 268.24C558.543 267.689 558.519 267.138 558.495 266.588C558.308 262.628 558.026 258.54 556.195 255.025C554.364 251.51 550.56 248.711 546.647 249.308" stroke="#171717" stroke-width="3.514" stroke-linecap="round" stroke-linejoin="round"/>
<path d="M309.772 271.075C309.734 271.086 309.699 271.101 309.667 271.122C286.354 280.529 268.149 297.188 255.953 319.142C251.478 327.202 246.581 344.915 244.238 355.459C240.489 383.54 238.076 411.281 238.591 439.046C238.906 463.777 241.979 488.396 247.752 512.446C253.61 534.705 268.839 552.277 289.926 561.646C321.557 575.704 357.874 576.876 392.292 571.873" stroke="#171717" stroke-width="3.514" stroke-linecap="round" stroke-linejoin="round"/>
<path d="M240.419 439.022C258.741 427.073 267.258 405.447 272.389 385.074C278.118 362.288 280.402 337.897 292.808 317.384C299.579 306.173 309.315 297.222 320.444 290.428" stroke="#171717" stroke-width="3.514" stroke-linecap="round" stroke-linejoin="round"/>
<path d="M544.906 263.952C549.018 265.405 553.13 266.853 557.242 268.298" stroke="#171717" stroke-width="3.514" stroke-linecap="round" stroke-linejoin="round"/>
<path d="M311.271 238.823C308.041 247.702 307.145 257.263 308.671 266.588C308.919 268.117 309.253 269.631 309.671 271.122C311.651 278.397 315.505 285.274 321.456 289.522C322.487 290.262 323.576 290.916 324.713 291.478C329.145 293.603 334.129 294.291 338.97 293.446C343.007 292.766 346.87 291.297 350.338 289.121C353.806 286.946 356.81 284.108 359.179 280.77C366.679 270.016 367.473 255.711 364.392 242.965C362.541 235.303 359.237 227.747 353.485 222.346C348.612 217.765 341.746 215.012 335.198 215.739C334.014 215.878 332.845 216.129 331.707 216.489C324.854 218.689 319.828 224.936 317.731 231.812C317.071 233.998 316.647 236.249 316.466 238.525C316.132 243.433 316.523 248.363 317.626 253.157C318.692 258.183 320.332 263.22 323.472 267.285C326.612 271.35 331.472 274.349 336.616 274.197C342.263 274.021 347.359 269.98 349.749 264.86C352.139 259.74 352.104 253.731 350.675 248.26C349.749 244.71 347.969 240.997 344.607 239.56C341.245 238.123 336.348 240.579 336.816 244.211" stroke="#171717" stroke-width="3.514" stroke-linecap="round" stroke-linejoin="round"/>
<path d="M315 238.413C313.606 238.179 313.395 238.108 312.013 237.886" stroke="#171717" stroke-width="3.514" stroke-linecap="round" stroke-linejoin="round"/>
<path d="M333.343 215.334L335.124 215.123C376.324 210.191 414.213 205.271 455.508 200.339" stroke="#171717" stroke-width="3.514" stroke-linecap="round" stroke-linejoin="round"/>
<path d="M338.978 293.509L467.012 278.291" stroke="#171717" stroke-width="3.514" stroke-linecap="round" stroke-linejoin="round"/>
<path d="M423.046 570.817C423.058 570.876 423.081 570.922 423.093 570.981C435.171 615.967 415.607 667.666 376.748 693.369C337.83 719.095 282.512 716.811 245.855 687.969C237.865 681.678 229.208 673.805 219.145 675.269C218.876 675.304 218.606 675.351 218.345 675.41C212.757 676.488 208.071 680.366 204.006 684.419C194.833 693.557 187.16 704.546 183.657 717.01C181.105 725.813 181.032 735.149 183.446 743.99C184.491 747.686 186.061 751.213 188.109 754.463C194.271 764.14 204.346 770.571 214.433 776.042C254.533 797.809 300.445 809.512 345.993 806.9C391.541 804.288 436.539 787 470.393 756.42C504.247 725.84 526.286 681.82 527.914 636.22" stroke="#171717" stroke-width="3.514" stroke-linecap="round" stroke-linejoin="round"/>
<path d="M571.874 548.289L783.987 735.766C799.463 749.438 816.051 765.276 817.551 785.871C818.277 795.958 815.103 805.927 809.737 814.585C807.938 817.495 805.905 820.253 803.657 822.832C794.789 833.024 783.249 840.51 771.511 847.199C758.378 854.661 743.442 861.363 728.716 862.464C721.459 863.113 714.15 862.079 707.359 859.442C693.102 853.76 683.167 840.932 673.948 828.666C625.553 764.303 577.166 699.94 528.786 635.578L528.259 634.878" stroke="#171717" stroke-width="3.514" stroke-linecap="round" stroke-linejoin="round"/>
<path d="M218.172 674.426C208.097 674.848 202.216 662.851 192.867 659.056C186.705 656.549 179.5 657.956 173.689 661.188C167.878 664.42 163.169 669.295 158.553 674.098C142.995 690.277 127.437 706.46 111.88 722.645C104.769 730.037 97.4939 737.687 93.7329 747.223C89.9719 756.759 90.5579 768.767 97.8679 775.948C105.705 783.648 118.721 783.422 128.69 778.806C138.659 774.19 146.49 766.106 154.744 758.867C162.991 751.651 172.516 744.903 183.444 743.989H183.479" stroke="#171717" stroke-width="3.514" stroke-linecap="round" stroke-linejoin="round"/>
<path d="M728.739 862.816C736.787 871.286 740.911 882.616 746.569 892.842C752.227 903.068 760.662 913.062 772.202 914.948C780.895 916.366 789.529 912.898 798.139 911.012C811.026 908.189 824.393 908.912 837.539 907.825C850.685 906.738 864.413 903.432 873.856 894.225C882.103 886.212 885.993 874.813 889.156 863.754C891.183 856.654 893.045 849.309 892.256 841.976C891.467 834.643 887.511 827.203 880.74 824.251C875.714 822.06 869.986 822.587 864.54 823.151C854.712 824.158 844.891 825.169 835.077 826.185C830.086 826.7 824.932 827.204 820.14 825.716C815.348 824.228 810.979 820.198 810.709 815.196" stroke="#171717" stroke-width="3.514" stroke-linecap="round" stroke-linejoin="round"/>
<path d="M444.045 153.413L455.586 138.5" stroke="#171717" stroke-width="3.514" stroke-linecap="round" stroke-linejoin="round"/>
<path d="M456.947 151.943L443.447 139.743" stroke="#171717" stroke-width="3.514" stroke-linecap="round" stroke-linejoin="round"/>
<path d="M273.687 242.552L262.911 232.652" stroke="#171717" stroke-width="3.514" stroke-linecap="round" stroke-linejoin="round"/>
<path d="M262.021 245.13L273.6 231.072" stroke="#171717" stroke-width="3.514" stroke-linecap="round" stroke-linejoin="round"/>
<path d="M518.261 111.1L526.566 96.235" stroke="#171717" stroke-width="3.514" stroke-linecap="round" stroke-linejoin="round"/>
<path d="M529.227 107.663L511.886 98.52" stroke="#171717" stroke-width="3.514" stroke-linecap="round" stroke-linejoin="round"/>
<path d="M745.785 146.723L753.228 135.973" stroke="#171717" stroke-width="3.514" stroke-linecap="round" stroke-linejoin="round"/>
<path d="M755 147.422L741.927 135.669" stroke="#171717" stroke-width="3.514" stroke-linecap="round" stroke-linejoin="round"/>
<path d="M704.743 129.426C707.872 115.419 706.066 100.761 699.628 87.933" stroke="#171717" stroke-width="3.514" stroke-linecap="round" stroke-linejoin="round"/>
<path d="M716.045 115.3C716.815 109.661 715.933 103.919 713.505 98.771" stroke="#171717" stroke-width="3.514" stroke-linecap="round" stroke-linejoin="round"/>
<path d="M305.052 690.693C331.767 695.593 360.842 683.528 376.233 661.148" stroke="#171717" stroke-width="3.514" stroke-linecap="round" stroke-linejoin="round"/>
<path d="M144.739 657.081C148.949 652.491 154.026 648.78 159.677 646.163C165.328 643.545 171.441 642.072 177.664 641.829" stroke="#171717" stroke-width="3.514" stroke-linecap="round" stroke-linejoin="round"/>
<path d="M143.137 637.232C144.394 635.35 146.08 633.794 148.057 632.692C150.034 631.589 152.244 630.973 154.506 630.893" stroke="#171717" stroke-width="3.514" stroke-linecap="round" stroke-linejoin="round"/>
<path d="M733.3 900.939C737.258 908.492 742.946 915.003 749.9 919.939" stroke="#171717" stroke-width="3.514" stroke-linecap="round" stroke-linejoin="round"/>
<path d="M781 839.949C791.672 855.019 811.49 863.008 829.63 859.549C847.77 856.09 863.262 841.377 867.645 823.438" stroke="#171717" stroke-width="3.514" stroke-linecap="round" stroke-linejoin="round"/>
<path d="M850.033 824.063C838.239 833.008 829.521 845.402 825.09 859.526" stroke="#171717" stroke-width="3.514" stroke-linecap="round" stroke-linejoin="round"/>
<path d="M825.976 826.437C814.652 833.528 805.723 843.86 800.348 856.092L802.13 854.754" stroke="#171717" stroke-width="3.514" stroke-linecap="round" stroke-linejoin="round"/>
<path d="M754.478 903.007C786.393 895.207 822.078 903.2 851.258 888.112C861.386 882.737 870 874.901 876.305 865.325C882.611 855.749 886.407 844.74 887.343 833.312" stroke="#171717" stroke-width="3.514" stroke-linecap="round" stroke-linejoin="round"/>
<path d="M184.272 713.132C175.102 711.685 165.66 714.402 157.565 718.948C149.47 723.494 142.513 729.782 135.665 736.048C129.389 741.792 122.941 747.848 119.848 755.778C116.755 763.708 118.104 774.047 125.177 778.778" stroke="#171717" stroke-width="3.514" stroke-linecap="round" stroke-linejoin="round"/>
<path d="M141.188 769.74C138.496 760.158 133.688 751.303 127.119 743.826" stroke="#171717" stroke-width="3.514" stroke-linecap="round" stroke-linejoin="round"/>
<path d="M157.609 756.567C156.006 746.151 151.892 736.282 145.624 727.81" stroke="#171717" stroke-width="3.514" stroke-linecap="round" stroke-linejoin="round"/>
<path d="M170.973 746.649C170.207 736.375 167.27 726.381 162.356 717.326" stroke="#171717" stroke-width="3.514" stroke-linecap="round" stroke-linejoin="round"/>
<path d="M195.768 661.369C176.204 665.238 161.02 680.206 147.086 694.475C134.214 707.656 121.262 720.935 111.03 736.257C106.924 742.405 103.24 748.942 101.285 756.072C99.3298 763.202 99.2118 771.014 102.085 777.825" stroke="#171717" stroke-width="3.514" stroke-linecap="round" stroke-linejoin="round"/>
<path d="M341.962 238.8C348.293 237.202 354.757 236.182 361.273 235.755" stroke="#171717" stroke-width="3.514" stroke-linecap="round" stroke-linejoin="round"/>
<path d="M538.6 404.289L546.777 394.289" stroke="#171717" stroke-width="3.514" stroke-linecap="round" stroke-linejoin="round"/>
<path d="M525.388 375.391L517.751 368.532" stroke="#171717" stroke-width="3.514" stroke-linecap="round" stroke-linejoin="round"/>
<path d="M507.6 427.037L513.378 420.825" stroke="#171717" stroke-width="3.514" stroke-linecap="round" stroke-linejoin="round"/>
<path d="M536.277 452.588L529.586 444.796" stroke="#171717" stroke-width="3.514" stroke-linecap="round" stroke-linejoin="round"/>
<path d="M541.859 441.852L548.802 435.552" stroke="#171717" stroke-width="3.514" stroke-linecap="round" stroke-linejoin="round"/>
<path d="M506.309 524.162L515.361 513.375" stroke="#171717" stroke-width="3.514" stroke-linecap="round" stroke-linejoin="round"/>
<path d="M556.024 510.977L548.91 500.7" stroke="#171717" stroke-width="3.514" stroke-linecap="round" stroke-linejoin="round"/>
<path d="M551.828 473.333L557.945 466.64" stroke="#171717" stroke-width="3.514" stroke-linecap="round" stroke-linejoin="round"/>
<path d="M427.173 457.63C424.563 481.732 425.225 506.076 429.14 530" stroke="#171717" stroke-width="3.514" stroke-linecap="round" stroke-linejoin="round"/>
<path d="M385.19 515.5L390.163 510.135" stroke="#171717" stroke-width="3.514" stroke-linecap="round" stroke-linejoin="round"/>
<path d="M369.213 479.064L362.56 471.655" stroke="#171717" stroke-width="3.514" stroke-linecap="round" stroke-linejoin="round"/>
<path d="M334.371 499.826C335.945 496.618 338.209 493.797 341 491.565" stroke="#171717" stroke-width="3.514" stroke-linecap="round" stroke-linejoin="round"/>
<path d="M331 461.454L322.683 454.065" stroke="#171717" stroke-width="3.514" stroke-linecap="round" stroke-linejoin="round"/>
<path d="M322.826 411.771C324.564 407.95 326.903 404.432 329.752 401.35" stroke="#171717" stroke-width="3.514" stroke-linecap="round" stroke-linejoin="round"/>
<path d="M411.191 435.419L404.238 428.319" stroke="#171717" stroke-width="3.514" stroke-linecap="round" stroke-linejoin="round"/>
<path d="M405.083 386.124L410.458 377.855" stroke="#171717" stroke-width="3.514" stroke-linecap="round" stroke-linejoin="round"/>
<path d="M437.025 409.569L430.152 403.669" stroke="#171717" stroke-width="3.514" stroke-linecap="round" stroke-linejoin="round"/>
<path d="M615.92 385.276L622.864 374.471" stroke="#171717" stroke-width="3.514" stroke-linecap="round" stroke-linejoin="round"/>
<path d="M636.287 338.482L629.572 333.234" stroke="#171717" stroke-width="3.514" stroke-linecap="round" stroke-linejoin="round"/>
<path d="M673.5 329.1L678.449 319.17" stroke="#171717" stroke-width="3.514" stroke-linecap="round" stroke-linejoin="round"/>
<path d="M657.665 315.939L652.328 313.379" stroke="#171717" stroke-width="3.514" stroke-linecap="round" stroke-linejoin="round"/>
<path d="M673.532 280.322C675.029 277.006 676.526 273.69 678.022 270.373" stroke="#171717" stroke-width="3.514" stroke-linecap="round" stroke-linejoin="round"/>
<path d="M696.272 284.6L691.251 282.246" stroke="#171717" stroke-width="3.514" stroke-linecap="round" stroke-linejoin="round"/>
<path d="M673.053 235.862C676.7 236.71 680.174 238.182 683.321 240.213" stroke="#171717" stroke-width="3.514" stroke-linecap="round" stroke-linejoin="round"/>
<path d="M696.168 250.505C697.133 247.197 698.098 243.889 699.062 240.582" stroke="#171717" stroke-width="3.514" stroke-linecap="round" stroke-linejoin="round"/>
<path d="M682.937 203.369L686.245 193.032" stroke="#171717" stroke-width="3.514" stroke-linecap="round" stroke-linejoin="round"/>
<path d="M454.02 341.133C468.967 346.387 484.153 351.526 499.938 352.887C515.723 354.248 532.391 351.487 545.209 342.179" stroke="#171717" stroke-width="3.514" stroke-linecap="round" stroke-linejoin="round"/>
<path d="M209.981 401.421C205.761 389.154 191.121 382.321 178.402 384.881C165.683 387.441 155.453 397.819 150.702 409.889C145.951 421.959 146.056 435.473 148.394 448.234C150.178 457.974 153.354 467.734 159.66 475.371C165.966 483.008 175.866 488.189 185.68 486.863C195.494 485.537 204.267 476.496 203.441 466.628C202.393 454.102 186.341 446.815 174.741 451.643C163.141 456.471 156.755 469.643 156.341 482.209C155.927 494.775 160.37 506.939 164.963 518.64C169.556 530.341 174.437 542.24 174.981 554.803C175.525 567.366 170.805 580.964 160.061 587.488C156.279 589.785 151.977 591.088 147.557 591.277C143.136 591.465 138.739 590.533 134.775 588.566C130.811 586.6 127.409 583.662 124.885 580.028C122.361 576.394 120.797 572.18 120.338 567.779" stroke="url(#paint7_linear_46_7755)" stroke-width="3.514" stroke-linecap="round" stroke-linejoin="round"/>
<path d="M747 368.892C764.3 372.72 776.734 389.665 778.742 407.266C780.75 424.867 773.825 442.557 763.353 456.846C756.733 465.878 747.763 474.318 736.635 475.566C725.507 476.814 713.027 467.447 714.877 456.402C716.238 448.278 725.028 442.682 733.228 443.457C741.428 444.232 748.497 450.296 752.084 457.711C755.671 465.126 756.196 473.69 755.353 481.884C753.616 498.766 745.281 515.97 730.187 523.728C720.235 528.843 708.651 529.333 697.497 530.212C686.343 531.091 674.631 532.689 665.725 539.462C656.819 546.235 652.175 559.846 658.665 568.962" stroke="#171717" stroke-width="3.514" stroke-linecap="round" stroke-linejoin="round"/>
<path d="M397.371 115.174C397.101 98.466 383.42 83.416 367.051 80.054C350.682 76.692 333 84.3 322.84 97.563C312.68 110.826 309.792 128.931 313.659 145.188C316.189 155.825 324.265 167.403 335.103 165.962C341.263 165.143 346.282 159.918 347.949 153.932C349.616 147.946 348.327 141.432 345.557 135.866C339.546 123.798 325.01 115.586 312.14 119.603C301.68 122.868 294.831 132.762 289.768 142.479C284.705 152.196 280.312 162.769 271.868 169.75C263.424 176.731 249.207 178.325 242.368 169.765" stroke="#171717" stroke-width="3.514" stroke-linecap="round" stroke-linejoin="round"/>
<path d="M283.282 93.243C287.334 89.624 290.796 85.008 291.701 79.651C292.606 74.294 290.392 68.183 285.545 65.727C280.698 63.271 273.623 65.977 272.673 71.327C276.566 62.201 273.931 50.573 266.173 44.395C258.415 38.217 246.112 38.428 238.882 45.222C231.652 52.016 230.843 64.693 237.496 72.054C237.932 64.265 228.756 57.685 221.519 60.597C214.282 63.509 212.219 74.61 217.928 79.926C213.945 77.487 209.101 75.589 204.675 77.076C197.351 79.536 198.294 88.151 205.175 89.834C211.139 91.292 219.095 90.152 225.396 90.747C244.581 92.559 264.023 92.544 283.282 93.243Z" stroke="#171717" stroke-width="3.514" stroke-linecap="round" stroke-linejoin="round"/>
<path d="M158.662 312.635C162.015 312.535 165.478 312.405 168.511 310.972C176.746 307.08 178.011 296.094 178.13 286.987C178.23 279.341 177.349 270.02 170.423 266.781C164.882 264.19 158.023 267.326 154.407 272.262C150.791 277.198 149.642 283.462 148.588 289.486C148.98 280.886 149.277 271.821 145.299 264.186C141.321 256.551 131.465 251.258 123.855 255.286C118.746 257.986 116.155 264.063 116.006 269.842C115.857 275.621 117.747 281.235 119.606 286.707C119.785 284.472 119.327 282.232 118.285 280.246C117.243 278.261 115.66 276.611 113.719 275.488C111.778 274.365 109.559 273.816 107.318 273.903C105.077 273.989 102.907 274.709 101.059 275.979C99.2108 277.249 97.7601 279.016 96.8751 281.076C95.9901 283.136 95.7069 285.405 96.0584 287.62C96.4099 289.834 97.3817 291.904 98.8612 293.589C100.341 295.274 102.267 296.505 104.418 297.14C97.3008 287.326 81.3248 285.676 72.3528 293.829C66.9388 298.749 64.3938 308.829 71.4978 313.69C76.6398 317.209 86.5858 314.837 92.3168 314.663L158.662 312.635Z" stroke="#171717" stroke-width="3.514" stroke-linecap="round" stroke-linejoin="round"/>
<path d="M855.022 244.432C863.957 244.08 874.022 243.19 879.688 236.269C885.354 229.348 883.188 217.287 875.155 213.322C867.122 209.357 855.834 215.693 855.612 224.645C856.975 216.945 858.321 208.903 856.065 201.416C853.809 193.929 846.745 187.264 838.986 188.241C833.119 188.98 828.444 193.86 826.227 199.341C824.01 204.822 823.8 210.877 823.62 216.788C823.878 214.098 823.439 211.386 822.344 208.916C821.249 206.445 819.535 204.298 817.369 202.682C815.202 201.066 812.656 200.036 809.976 199.691C807.295 199.346 804.571 199.698 802.066 200.712C799.561 201.727 797.36 203.37 795.675 205.483C793.99 207.596 792.878 210.107 792.446 212.775C792.014 215.443 792.278 218.177 793.21 220.714C794.143 223.25 795.714 225.503 797.771 227.256C796.215 220.81 787.971 217.009 782.058 220.012C776.145 223.015 774.353 231.912 778.639 236.973C773.574 230.996 759.671 234.554 761.784 243.692C763.444 250.874 776.774 247.514 782.051 247.306L855.022 244.432Z" stroke="url(#paint8_linear_46_7755)" stroke-width="3.514" stroke-linecap="round" stroke-linejoin="round"/>
<path d="M479.784 699.4L474.822 681.758" stroke="url(#paint9_linear_46_7755)" stroke-width="3.514" stroke-linecap="round" stroke-linejoin="round"/>
<path d="M468.2 694.408L485.979 688.777" stroke="url(#paint10_linear_46_7755)" stroke-width="3.514" stroke-linecap="round" stroke-linejoin="round"/>
<path d="M667.258 676.255C668.682 671.28 670.105 666.305 671.529 661.33" stroke="url(#paint11_linear_46_7755)" stroke-width="3.514" stroke-linecap="round" stroke-linejoin="round"/>
<path d="M676.624 671.773C671.544 669.594 666.128 668.301 660.611 667.949" stroke="url(#paint12_linear_46_7755)" stroke-width="3.514" stroke-linecap="round" stroke-linejoin="round"/>
<path d="M681.007 801.39L686.531 785.573C686.527 786.067 686.523 786.561 686.52 787.056" stroke="url(#paint13_linear_46_7755)" stroke-width="3.514" stroke-linecap="round" stroke-linejoin="round"/>
<path d="M675.451 792.208L690.851 795.69" stroke="url(#paint14_linear_46_7755)" stroke-width="3.514" stroke-linecap="round" stroke-linejoin="round"/>
<path d="M588.951 651.439C590.237 644.639 591.524 637.839 592.81 631.039" stroke="url(#paint15_linear_46_7755)" stroke-width="3.514" stroke-linecap="round" stroke-linejoin="round"/>
<path d="M600.658 645.414L581.029 640.014" stroke="url(#paint16_linear_46_7755)" stroke-width="3.514" stroke-linecap="round" stroke-linejoin="round"/>
<path d="M354.2 734.188C357.155 728.476 360.744 723.116 364.9 718.209C364.606 718.738 364.312 719.268 364.017 719.797" stroke="url(#paint17_linear_46_7755)" stroke-width="3.514" stroke-linecap="round" stroke-linejoin="round"/>
<path d="M365.15 733.543L351.937 720.293" stroke="url(#paint18_linear_46_7755)" stroke-width="3.514" stroke-linecap="round" stroke-linejoin="round"/>
<path d="M232.844 767.256L244.474 756.84" stroke="url(#paint19_linear_46_7755)" stroke-width="3.514" stroke-linecap="round" stroke-linejoin="round"/>
<path d="M243.078 768.553L232.739 756.79" stroke="url(#paint20_linear_46_7755)" stroke-width="3.514" stroke-linecap="round" stroke-linejoin="round"/>
<path d="M313.826 777.669L323.2 767.2" stroke="url(#paint21_linear_46_7755)" stroke-width="3.514" stroke-linecap="round" stroke-linejoin="round"/>
<path d="M442.315 728.039L432.843 721.569" stroke="url(#paint22_linear_46_7755)" stroke-width="3.514" stroke-linecap="round" stroke-linejoin="round"/>
<path d="M462.581 626.543L471.85 614.336" stroke="url(#paint23_linear_46_7755)" stroke-width="3.514" stroke-linecap="round" stroke-linejoin="round"/>
<path d="M620.899 706.564C621.591 701.78 622.282 696.996 622.973 692.211" stroke="url(#paint24_linear_46_7755)" stroke-width="3.514" stroke-linecap="round" stroke-linejoin="round"/>
<path d="M753.41 749.873C750.108 747.429 746.261 745.825 742.2 745.2" stroke="url(#paint25_linear_46_7755)" stroke-width="3.514" stroke-linecap="round" stroke-linejoin="round"/>
<path d="M745.019 827.876L750.533 813.543" stroke="url(#paint26_linear_46_7755)" stroke-width="3.514" stroke-linecap="round" stroke-linejoin="round"/>
<path d="M241.358 422.23C252.098 420.774 260.065 411.542 265.368 402.09C275.692 383.69 279.843 362.59 285.868 342.368C291.893 322.146 300.586 301.575 317.168 288.519" stroke="url(#paint27_linear_46_7755)" stroke-width="3.514" stroke-linecap="round" stroke-linejoin="round"/>
<path d="M547.77 266.479C550.955 267.318 553.732 269.279 555.589 272" stroke="url(#paint28_linear_46_7755)" stroke-width="3.514" stroke-linecap="round" stroke-linejoin="round"/>
<path d="M358.599 313.86C357.665 311.965 356.036 310.502 354.051 309.776C352.067 309.049 349.879 309.115 347.941 309.959C346.004 310.803 344.465 312.361 343.646 314.308C342.826 316.256 342.788 318.445 343.539 320.42C344.29 322.396 345.773 324.006 347.68 324.917C349.586 325.828 351.771 325.971 353.78 325.314C355.788 324.657 357.467 323.253 358.468 321.391C359.468 319.53 359.714 317.355 359.153 315.317" stroke="url(#paint29_linear_46_7755)" stroke-width="3.514" stroke-linecap="round" stroke-linejoin="round"/>
<path d="M318.712 340.892C318.063 339.573 316.93 338.555 315.55 338.05C314.17 337.544 312.647 337.589 311.299 338.175C309.951 338.762 308.881 339.844 308.31 341.199C307.739 342.554 307.712 344.076 308.234 345.451C308.756 346.825 309.786 347.946 311.113 348.58C312.439 349.215 313.958 349.314 315.356 348.858C316.753 348.402 317.921 347.426 318.618 346.131C319.315 344.837 319.486 343.324 319.097 341.906" stroke="url(#paint30_linear_46_7755)" stroke-width="2.444" stroke-linecap="round" stroke-linejoin="round"/>
<path d="M318.712 540.048C318.063 538.729 316.93 537.711 315.55 537.206C314.17 536.7 312.647 536.745 311.299 537.331C309.951 537.918 308.881 539 308.31 540.355C307.739 541.71 307.712 543.232 308.234 544.607C308.756 545.981 309.786 547.102 311.113 547.736C312.439 548.37 313.958 548.47 315.356 548.014C316.753 547.558 317.921 546.581 318.618 545.287C319.315 543.993 319.486 542.48 319.097 541.062" stroke="url(#paint31_linear_46_7755)" stroke-width="2.444" stroke-linecap="round" stroke-linejoin="round"/>
<path d="M289.663 511.984C288.649 509.921 286.88 508.327 284.722 507.534C282.565 506.741 280.185 506.809 278.076 507.724C275.967 508.638 274.291 510.33 273.397 512.447C272.502 514.565 272.457 516.945 273.271 519.095C274.084 521.245 275.695 522.999 277.767 523.993C279.84 524.987 282.216 525.145 284.402 524.434C286.588 523.723 288.416 522.198 289.507 520.175C290.598 518.152 290.869 515.786 290.263 513.569" stroke="url(#paint32_linear_46_7755)" stroke-width="3.822" stroke-linecap="round" stroke-linejoin="round"/>
<path d="M447.578 294.031C446.928 292.714 445.795 291.698 444.416 291.194C443.036 290.69 441.516 290.736 440.17 291.324C438.823 291.911 437.755 292.994 437.186 294.348C436.617 295.702 436.591 297.223 437.113 298.595C437.636 299.968 438.667 301.087 439.992 301.719C441.317 302.352 442.835 302.45 444.231 301.994C445.627 301.537 446.794 300.56 447.489 299.267C448.184 297.973 448.354 296.461 447.964 295.045" stroke="url(#paint33_linear_46_7755)" stroke-width="2.444" stroke-linecap="round" stroke-linejoin="round"/>
<path d="M553.014 297.546C552.363 296.229 551.231 295.213 549.851 294.709C548.472 294.205 546.951 294.251 545.605 294.839C544.259 295.426 543.19 296.509 542.621 297.863C542.052 299.217 542.026 300.738 542.549 302.11C543.071 303.483 544.102 304.602 545.427 305.234C546.753 305.867 548.271 305.965 549.667 305.509C551.063 305.052 552.229 304.075 552.924 302.782C553.619 301.488 553.79 299.976 553.4 298.56" stroke="url(#paint34_linear_46_7755)" stroke-width="2.444" stroke-linecap="round" stroke-linejoin="round"/>
<path d="M589.49 109.864L601.881 111.622C601.985 111.637 602.083 111.683 602.16 111.755C602.238 111.827 602.291 111.921 602.313 112.025C602.336 112.128 602.326 112.236 602.285 112.333C602.244 112.431 602.175 112.513 602.086 112.57L591.529 119.29C591.443 119.345 591.375 119.424 591.333 119.517C591.292 119.611 591.279 119.714 591.297 119.815L593.454 132.142C593.472 132.246 593.458 132.354 593.413 132.45C593.369 132.546 593.296 132.626 593.204 132.679C593.113 132.732 593.007 132.756 592.902 132.747C592.796 132.738 592.696 132.698 592.615 132.63L582.961 124.666C582.882 124.601 582.786 124.561 582.684 124.551C582.582 124.54 582.48 124.56 582.39 124.608L571.333 130.469C571.239 130.519 571.133 130.538 571.028 130.526C570.923 130.513 570.824 130.468 570.746 130.398C570.667 130.327 570.611 130.234 570.587 130.131C570.563 130.028 570.571 129.92 570.61 129.822L575.2 118.18C575.237 118.085 575.246 117.981 575.224 117.881C575.203 117.781 575.152 117.69 575.079 117.619L566.088 108.919C566.012 108.846 565.96 108.751 565.939 108.647C565.919 108.543 565.931 108.435 565.974 108.339C566.016 108.242 566.087 108.16 566.178 108.105C566.268 108.05 566.373 108.024 566.479 108.031L578.97 108.8C579.072 108.807 579.175 108.784 579.264 108.732C579.353 108.681 579.425 108.604 579.47 108.511L584.97 97.27C585.016 97.1751 585.091 97.0968 585.183 97.0456C585.276 96.9944 585.382 96.9728 585.487 96.9836C585.592 96.9945 585.691 97.0374 585.771 97.1065C585.852 97.1756 585.908 97.2676 585.935 97.37L589.064 109.487C589.09 109.585 589.145 109.672 589.22 109.739C589.296 109.806 589.39 109.85 589.49 109.864V109.864Z" fill="url(#paint35_linear_46_7755)"/>
<path d="M244.032 265.537L256.423 267.295C256.527 267.311 256.624 267.358 256.7 267.43C256.777 267.502 256.83 267.596 256.852 267.7C256.873 267.803 256.863 267.91 256.822 268.007C256.781 268.104 256.712 268.187 256.623 268.243L246.066 274.963C245.979 275.018 245.911 275.097 245.87 275.19C245.829 275.284 245.816 275.387 245.834 275.488L248 287.815C248.018 287.919 248.004 288.027 247.959 288.123C247.915 288.219 247.842 288.299 247.75 288.352C247.659 288.405 247.553 288.429 247.448 288.42C247.342 288.411 247.242 288.371 247.161 288.303L237.507 280.339C237.428 280.274 237.331 280.234 237.23 280.223C237.128 280.213 237.026 280.233 236.936 280.281L225.879 286.142C225.785 286.192 225.679 286.211 225.574 286.199C225.469 286.186 225.37 286.141 225.291 286.071C225.213 286 225.157 285.907 225.133 285.804C225.109 285.701 225.117 285.593 225.156 285.495L229.747 273.853C229.784 273.758 229.793 273.654 229.771 273.554C229.75 273.454 229.699 273.363 229.626 273.292L220.635 264.592C220.558 264.519 220.507 264.424 220.486 264.32C220.466 264.216 220.478 264.108 220.52 264.012C220.563 263.915 220.634 263.833 220.725 263.778C220.815 263.723 220.92 263.697 221.026 263.704L233.517 264.473C233.619 264.48 233.722 264.457 233.811 264.405C233.9 264.354 233.971 264.277 234.017 264.184L239.517 252.943C239.563 252.848 239.638 252.77 239.73 252.719C239.823 252.667 239.929 252.646 240.034 252.657C240.139 252.668 240.238 252.71 240.318 252.78C240.398 252.849 240.455 252.941 240.482 253.043L243.611 265.16C243.637 265.257 243.69 265.344 243.765 265.411C243.84 265.478 243.932 265.522 244.032 265.537Z" fill="url(#paint36_linear_46_7755)"/>
<g opacity="0.1">
<path d="M278.485 429.465C274.052 434.087 275.785 441.326 276.765 447.027C277.849 453.335 280.037 459.206 282.213 465.194C287.158 478.29 295.459 489.856 306.284 498.732C331.184 519.18 361.99 527.032 393.653 529.162C403.107 529.798 412.589 529.926 422.063 529.814C426.963 529.756 431.856 529.631 436.752 529.478C442.284 529.304 447.586 529.46 452.621 526.878C460.868 522.641 457.321 512.039 450.303 509.143C446.57 507.604 442.53 508.131 438.584 508.29C434.608 508.451 430.633 508.589 426.657 508.703C419.008 508.911 411.357 508.99 403.703 508.803C388.848 508.431 374.061 507.023 359.643 503.296C335.517 497.213 314.032 483.432 298.443 464.041C294.259 458.841 290.896 453.771 288.634 447.43C286.629 441.806 286.807 433.718 282.327 429.475C281.812 428.975 281.122 428.695 280.404 428.695C279.686 428.695 278.997 428.975 278.482 429.475L278.485 429.465Z" fill="#171717"/>
</g>
<g opacity="0.1">
<path d="M486.461 204.886C483.075 205.838 480.484 209.637 478.275 212.226C475.665 215.199 473.521 218.551 471.917 222.168C468.481 230.437 466.996 240.211 466.817 249.122C466.611 259.583 468.174 269.846 469.334 280.21C469.934 285.529 470.418 290.865 470.521 296.22C470.631 301.948 468.992 308.335 470.446 313.848C471.892 319.331 479.311 319.973 482.183 315.382C484.807 311.19 484.683 305.755 484.767 300.914C484.809 295.572 484.526 290.232 483.921 284.924C482.855 274.765 481.092 264.683 480.058 254.524C479.231 246.405 478.658 237.858 480.158 229.802C480.78 225.604 481.681 221.453 482.858 217.376C483.491 215.268 484.338 213.23 485.388 211.296C486.405 209.554 487.575 208.444 488.01 206.443C488.065 206.228 488.063 206.002 488.005 205.788C487.946 205.573 487.832 205.378 487.675 205.221C487.518 205.064 487.323 204.951 487.109 204.892C486.894 204.834 486.668 204.832 486.453 204.887L486.461 204.886Z" fill="#171717"/>
</g>
<g opacity="0.1">
<path d="M201.368 85.027C214.648 91.806 230.255 93.384 245.037 94.068C252.532 94.4078 260.042 94.1912 267.506 93.42C271.106 93.053 274.701 92.585 278.279 92.037C282.309 91.42 286.379 91.402 289.142 88.116C290.853 86.079 290.969 82.586 288.25 81.195C282.338 78.172 273.887 81.681 267.506 82.372C260.369 83.144 253.15 83.56 245.975 83.716C231.336 84.033 216.908 81.489 202.361 81.358C200.472 81.341 199.597 84.123 201.368 85.027V85.027Z" fill="#171717"/>
</g>
<g opacity="0.1">
<path d="M68.0004 310.57C78.9704 312.72 89.1004 315.82 100.388 316.205C111.971 316.601 123.566 316.327 135.116 315.387C144.769 314.601 156.807 314.493 165.451 309.598C169.259 307.518 172.238 304.194 173.888 300.181C174.403 299.108 174.676 297.936 174.687 296.746C174.698 295.557 174.447 294.379 173.952 293.297C173.555 292.315 172.915 291.45 172.091 290.784C171.761 290.453 171.35 290.214 170.899 290.089C170.039 289.816 170.039 289.733 170.899 289.842C169.079 287.842 166.049 289.071 165.258 291.331L164.838 292.531L166.724 290.078C163.519 291.523 163.431 294.64 161.488 297.063C159.197 299.921 154.747 300.463 151.376 301.053C142.167 302.603 132.884 303.687 123.565 304.301C114.57 304.955 105.559 305.206 96.5314 305.053C87.2364 304.895 77.8874 306.526 68.6164 306.053C66.0624 305.924 65.4464 310.063 68.0054 310.565L68.0004 310.57Z" fill="#171717"/>
</g>
</g>
</g>
<defs>
<linearGradient id="paint0_linear_46_7755" x1="646.057" y1="158.324" x2="646.057" y2="407.037" gradientUnits="userSpaceOnUse">
<stop stop-color="#24E9C1"/>
<stop offset="1" stop-color="#0EABA6"/>
</linearGradient>
<linearGradient id="paint1_linear_46_7755" x1="376.748" y1="343.018" x2="376.748" y2="533.115" gradientUnits="userSpaceOnUse">
<stop stop-color="#24E9C1"/>
<stop offset="1" stop-color="#0EABA6"/>
</linearGradient>
<linearGradient id="paint2_linear_46_7755" x1="402.122" y1="200.34" x2="402.122" y2="293.51" gradientUnits="userSpaceOnUse">
<stop stop-color="#24E9C1"/>
<stop offset="1" stop-color="#0EABA6"/>
</linearGradient>
<linearGradient id="paint3_linear_46_7755" x1="499.84" y1="316.328" x2="499.84" y2="341.868" gradientUnits="userSpaceOnUse">
<stop stop-color="#24E9C1"/>
<stop offset="1" stop-color="#0EABA6"/>
</linearGradient>
<linearGradient id="paint4_linear_46_7755" x1="514.43" y1="339.768" x2="514.43" y2="561.061" gradientUnits="userSpaceOnUse">
<stop stop-color="#24E9C1"/>
<stop offset="1" stop-color="#0EABA6"/>
</linearGradient>
<linearGradient id="paint5_linear_46_7755" x1="432.167" y1="491.237" x2="432.167" y2="558.713" gradientUnits="userSpaceOnUse">
<stop stop-color="#24E9C1"/>
<stop offset="1" stop-color="#0EABA6"/>
</linearGradient>
<linearGradient id="paint6_linear_46_7755" x1="337.01" y1="215.628" x2="337.01" y2="293.797" gradientUnits="userSpaceOnUse">
<stop stop-color="#24E9C1"/>
<stop offset="1" stop-color="#0EABA6"/>
</linearGradient>
<linearGradient id="paint7_linear_46_7755" x1="165.159" y1="384.347" x2="165.159" y2="591.301" gradientUnits="userSpaceOnUse">
<stop stop-color="#24E9C1"/>
<stop offset="1" stop-color="#0EABA6"/>
</linearGradient>
<linearGradient id="paint8_linear_46_7755" x1="822.215" y1="188.145" x2="822.215" y2="248.271" gradientUnits="userSpaceOnUse">
<stop stop-color="#24E9C1"/>
<stop offset="1" stop-color="#0EABA6"/>
</linearGradient>
<linearGradient id="paint9_linear_46_7755" x1="477.303" y1="681.758" x2="477.303" y2="699.4" gradientUnits="userSpaceOnUse">
<stop stop-color="#24E9C1"/>
<stop offset="1" stop-color="#0EABA6"/>
</linearGradient>
<linearGradient id="paint10_linear_46_7755" x1="477.09" y1="688.777" x2="477.09" y2="694.408" gradientUnits="userSpaceOnUse">
<stop stop-color="#24E9C1"/>
<stop offset="1" stop-color="#0EABA6"/>
</linearGradient>
<linearGradient id="paint11_linear_46_7755" x1="669.393" y1="661.33" x2="669.393" y2="676.255" gradientUnits="userSpaceOnUse">
<stop stop-color="#24E9C1"/>
<stop offset="1" stop-color="#0EABA6"/>
</linearGradient>
<linearGradient id="paint12_linear_46_7755" x1="668.618" y1="667.949" x2="668.618" y2="671.773" gradientUnits="userSpaceOnUse">
<stop stop-color="#24E9C1"/>
<stop offset="1" stop-color="#0EABA6"/>
</linearGradient>
<linearGradient id="paint13_linear_46_7755" x1="683.769" y1="785.573" x2="683.769" y2="801.39" gradientUnits="userSpaceOnUse">
<stop stop-color="#24E9C1"/>
<stop offset="1" stop-color="#0EABA6"/>
</linearGradient>
<linearGradient id="paint14_linear_46_7755" x1="683.151" y1="792.208" x2="683.151" y2="795.69" gradientUnits="userSpaceOnUse">
<stop stop-color="#24E9C1"/>
<stop offset="1" stop-color="#0EABA6"/>
</linearGradient>
<linearGradient id="paint15_linear_46_7755" x1="590.881" y1="631.039" x2="590.881" y2="651.439" gradientUnits="userSpaceOnUse">
<stop stop-color="#24E9C1"/>
<stop offset="1" stop-color="#0EABA6"/>
</linearGradient>
<linearGradient id="paint16_linear_46_7755" x1="590.844" y1="640.014" x2="590.844" y2="645.414" gradientUnits="userSpaceOnUse">
<stop stop-color="#24E9C1"/>
<stop offset="1" stop-color="#0EABA6"/>
</linearGradient>
<linearGradient id="paint17_linear_46_7755" x1="359.55" y1="718.209" x2="359.55" y2="734.188" gradientUnits="userSpaceOnUse">
<stop stop-color="#24E9C1"/>
<stop offset="1" stop-color="#0EABA6"/>
</linearGradient>
<linearGradient id="paint18_linear_46_7755" x1="358.543" y1="720.293" x2="358.543" y2="733.543" gradientUnits="userSpaceOnUse">
<stop stop-color="#24E9C1"/>
<stop offset="1" stop-color="#0EABA6"/>
</linearGradient>
<linearGradient id="paint19_linear_46_7755" x1="238.659" y1="756.84" x2="238.659" y2="767.256" gradientUnits="userSpaceOnUse">
<stop stop-color="#24E9C1"/>
<stop offset="1" stop-color="#0EABA6"/>
</linearGradient>
<linearGradient id="paint20_linear_46_7755" x1="237.909" y1="756.79" x2="237.909" y2="768.553" gradientUnits="userSpaceOnUse">
<stop stop-color="#24E9C1"/>
<stop offset="1" stop-color="#0EABA6"/>
</linearGradient>
<linearGradient id="paint21_linear_46_7755" x1="318.513" y1="767.2" x2="318.513" y2="777.669" gradientUnits="userSpaceOnUse">
<stop stop-color="#24E9C1"/>
<stop offset="1" stop-color="#0EABA6"/>
</linearGradient>
<linearGradient id="paint22_linear_46_7755" x1="437.579" y1="721.569" x2="437.579" y2="728.039" gradientUnits="userSpaceOnUse">
<stop stop-color="#24E9C1"/>
<stop offset="1" stop-color="#0EABA6"/>
</linearGradient>
<linearGradient id="paint23_linear_46_7755" x1="467.216" y1="614.336" x2="467.216" y2="626.543" gradientUnits="userSpaceOnUse">
<stop stop-color="#24E9C1"/>
<stop offset="1" stop-color="#0EABA6"/>
</linearGradient>
<linearGradient id="paint24_linear_46_7755" x1="621.936" y1="692.211" x2="621.936" y2="706.564" gradientUnits="userSpaceOnUse">
<stop stop-color="#24E9C1"/>
<stop offset="1" stop-color="#0EABA6"/>
</linearGradient>
<linearGradient id="paint25_linear_46_7755" x1="747.805" y1="745.2" x2="747.805" y2="749.873" gradientUnits="userSpaceOnUse">
<stop stop-color="#24E9C1"/>
<stop offset="1" stop-color="#0EABA6"/>
</linearGradient>
<linearGradient id="paint26_linear_46_7755" x1="747.776" y1="813.543" x2="747.776" y2="827.876" gradientUnits="userSpaceOnUse">
<stop stop-color="#24E9C1"/>
<stop offset="1" stop-color="#0EABA6"/>
</linearGradient>
<linearGradient id="paint27_linear_46_7755" x1="279.263" y1="288.519" x2="279.263" y2="422.23" gradientUnits="userSpaceOnUse">
<stop stop-color="#24E9C1"/>
<stop offset="1" stop-color="#0EABA6"/>
</linearGradient>
<linearGradient id="paint28_linear_46_7755" x1="551.679" y1="266.479" x2="551.679" y2="272" gradientUnits="userSpaceOnUse">
<stop stop-color="#24E9C1"/>
<stop offset="1" stop-color="#0EABA6"/>
</linearGradient>
<linearGradient id="paint29_linear_46_7755" x1="351.225" y1="309.275" x2="351.225" y2="325.721" gradientUnits="userSpaceOnUse">
<stop stop-color="#24E9C1"/>
<stop offset="1" stop-color="#0EABA6"/>
</linearGradient>
<linearGradient id="paint30_linear_46_7755" x1="313.581" y1="337.7" x2="313.581" y2="349.14" gradientUnits="userSpaceOnUse">
<stop stop-color="#24E9C1"/>
<stop offset="1" stop-color="#0EABA6"/>
</linearGradient>
<linearGradient id="paint31_linear_46_7755" x1="313.581" y1="536.856" x2="313.581" y2="548.296" gradientUnits="userSpaceOnUse">
<stop stop-color="#24E9C1"/>
<stop offset="1" stop-color="#0EABA6"/>
</linearGradient>
<linearGradient id="paint32_linear_46_7755" x1="281.635" y1="506.985" x2="281.635" y2="524.873" gradientUnits="userSpaceOnUse">
<stop stop-color="#24E9C1"/>
<stop offset="1" stop-color="#0EABA6"/>
</linearGradient>
<linearGradient id="paint33_linear_46_7755" x1="442.454" y1="290.847" x2="442.454" y2="302.277" gradientUnits="userSpaceOnUse">
<stop stop-color="#24E9C1"/>
<stop offset="1" stop-color="#0EABA6"/>
</linearGradient>
<linearGradient id="paint34_linear_46_7755" x1="547.89" y1="294.362" x2="547.89" y2="305.792" gradientUnits="userSpaceOnUse">
<stop stop-color="#24E9C1"/>
<stop offset="1" stop-color="#0EABA6"/>
</linearGradient>
<linearGradient id="paint35_linear_46_7755" x1="584.127" y1="96.9809" x2="584.127" y2="132.749" gradientUnits="userSpaceOnUse">
<stop stop-color="#24E9C1"/>
<stop offset="1" stop-color="#0EABA6"/>
</linearGradient>
<linearGradient id="paint36_linear_46_7755" x1="238.67" y1="252.654" x2="238.67" y2="288.422" gradientUnits="userSpaceOnUse">
<stop stop-color="#24E9C1"/>
<stop offset="1" stop-color="#0EABA6"/>
</linearGradient>
<clipPath id="clip0_46_7755">
<rect width="960" height="960" fill="white"/>
</clipPath>
<clipPath id="clip1_46_7755">
<rect width="830" height="884" fill="white" transform="translate(65 38)"/>
</clipPath>
</defs>
</svg>