<?xml version="1.0" encoding="UTF-8" standalone="no"?><!DOCTYPE svg PUBLIC "-//W3C//DTD SVG 1.1//EN" "http://www.w3.org/Graphics/SVG/1.1/DTD/svg11.dtd"><svg width="100%" height="100%" viewBox="0 0 423 423" version="1.1" xmlns="http://www.w3.org/2000/svg" xmlns:xlink="http://www.w3.org/1999/xlink" xml:space="preserve" xmlns:serif="http://www.serif.com/" style="fill-rule:evenodd;clip-rule:evenodd;stroke-linejoin:round;stroke-miterlimit:2;"><rect id="Artboard10" x="0" y="0" width="422.571" height="422.571" style="fill:none;"/><clipPath id="_clip1"><rect x="0" y="0" width="422.571" height="422.571"/></clipPath><g clip-path="url(#_clip1)"><circle cx="211.285" cy="211.285" r="211.285" style="fill:#06b6d4;"/><path d="M95.862,268.815l0,-33.361c0,-29.717 -14.437,-43.734 -14.017,-78.777c0.421,-38.127 20.886,-84.103 63.078,-84.103c26.212,-0 35.043,25.231 35.043,49.06c-0,43.593 -28.035,79.337 -28.035,121.669l0,25.512c0,15.379 -12.655,28.034 -28.034,28.034c-15.38,0 -28.035,-12.655 -28.035,-28.034Z" style="fill:#fff;fill-rule:nonzero;stroke:#000;stroke-width:11px;"/><path d="M320.138,324.884l-0,-33.361c-0,-29.717 14.437,-43.734 14.017,-78.777c-0.421,-38.127 -20.886,-84.104 -63.078,-84.104c-26.212,0 -35.043,25.231 -35.043,49.061c0,43.593 28.035,79.337 28.035,121.669l-0,25.512c-0,15.379 12.655,28.034 28.034,28.034c15.38,0 28.035,-12.655 28.035,-28.034Z" style="fill:#fff;fill-rule:nonzero;stroke:#000;stroke-width:11px;"/><path d="M264.069,282.832l56.069,-0" style="fill:none;fill-rule:nonzero;stroke:#000;stroke-width:11px;"/><path d="M95.862,226.763l56.069,0" style="fill:none;fill-rule:nonzero;stroke:#000;stroke-width:11px;"/></g></svg>